<svg xmlns="http://www.w3.org/2000/svg" width="512" height="512" version="1.1"><path fill="#E5A251" d="M0 0 C14.67765185 12.205669 30.72989876 22.32448933 47.015625 32.21826172 C47.59482697 32.57034698 48.17402893 32.92243225 48.77078247 33.28518677 C52.17070594 35.34816258 55.58189113 37.39118237 59.00354004 39.41790771 C60.86723962 40.52883276 62.71980367 41.65720922 64.57324219 42.78515625 C65.82443011 43.5318245 67.07604559 44.27777686 68.328125 45.02294922 C69.44832031 45.69825684 70.56851563 46.37356445 71.72265625 47.06933594 C74.91610456 48.53744078 76.18997133 48.77236478 79.515625 47.84326172 C81.27780123 47.07908174 83.02618759 46.28287428 84.765625 45.46826172 C87.45088436 44.44098539 90.16664857 43.51227246 92.890625 42.59326172 C93.64754639 42.33561035 94.40446777 42.07795898 95.18432617 41.8125 C105.49134581 38.41845647 116.0998663 36.3809139 126.765625 34.46826172 C127.48975586 34.33403809 128.21388672 34.19981445 128.95996094 34.06152344 C169.31219983 26.89249749 220.61230962 33.48926465 256.6796875 53.03857422 C257.45715332 53.44479004 258.23461914 53.85100586 259.03564453 54.26953125 C261.265625 55.46826172 261.265625 55.46826172 263.21826172 56.73339844 C265.62040118 58.02122377 267.01858108 58.48790268 269.765625 58.46826172 C272.92917369 57.1198907 275.79711665 55.58470171 278.75894165 53.85301208 C283.19583949 51.2610285 287.4975613 49.25324369 292.3828125 47.65966797 C293.03687576 47.44627777 293.69093903 47.23288757 294.36482239 47.01303101 C295.73696186 46.57303142 297.11061212 46.13771936 298.48562622 45.70678711 C302.35580592 44.49270765 306.20971233 43.22829256 310.06640625 41.97216797 C310.89931686 41.7022403 311.73222748 41.43231262 312.59037781 41.15420532 C324.05885778 37.42321157 335.43885842 33.43292824 346.828125 29.46826172 C348.95228394 28.73063439 351.07646956 27.99308388 353.20068359 27.25561523 C355.21328765 26.55586968 357.2258233 25.85592737 359.23828125 25.15576172 C360.13910934 24.84263535 361.03993744 24.52950897 361.96806335 24.20689392 C363.2659655 23.75425926 363.2659655 23.75425926 364.59008789 23.29248047 C365.43427277 22.99841309 366.27845764 22.7043457 367.14822388 22.40136719 C368.99839868 21.74177848 370.84131933 21.06167169 372.67868042 20.3671875 C373.63992828 20.0047998 374.60117615 19.64241211 375.59155273 19.26904297 C376.45586411 18.93686768 377.32017548 18.60469238 378.2106781 18.26245117 C382.41420309 16.95581141 386.43395683 16.70072052 390.765625 17.46826172 C394.203125 19.28076172 394.203125 19.28076172 396.765625 21.46826172 C397.28125 21.90138672 397.796875 22.33451172 398.328125 22.78076172 C408.98363016 35.28939822 405.64330336 67.46370048 404.54296875 82.51367188 C402.12494342 107.62622723 395.82464613 137.37790706 379.640625 157.53076172 C379.021875 158.50013672 378.403125 159.46951172 377.765625 160.46826172 C378.81219016 165.01705801 380.9777269 169.08073907 383.03979492 173.24072266 C393.06827398 193.49912455 400.293901 214.55442627 405.765625 236.46826172 C406.02574875 237.49221542 406.2858725 238.51616913 406.55387878 239.57115173 C408.64496225 248.43907438 409.22497128 256.88013488 409.19921875 265.96435547 C409.20379963 267.41057067 409.20911071 268.85678373 409.21510315 270.30299377 C409.22395535 273.31072929 409.22170235 276.31819817 409.21166992 279.32592773 C409.2001852 283.1358068 409.22042399 286.94475816 409.24958706 290.75451565 C409.26813733 293.73441686 409.2676198 296.71410332 409.26194954 299.69404793 C409.26179864 301.09674443 409.2676461 302.49945774 409.28024101 303.9020977 C409.38132829 316.99781302 406.72036287 328.83181975 401.640625 340.90576172 C401.34696045 341.60475586 401.0532959 342.30375 400.75073242 343.02392578 C387.04144396 374.40977558 360.76230786 392.18128833 329.765625 404.46826172 C247.99546553 436.035655 140.93838815 430.9641992 8.0234375 389.28857422 C-7.15051412 382.55351078 -21.60049321 375.3383846 -34.234375 364.46826172 C-34.94980469 363.91267578 -35.66523437 363.35708984 -36.40234375 362.78466797 C-43.13203394 357.39822932 -48.0761591 350.30479419 -53.234375 343.46826172 C-54.59755859 344.43119141 -54.59755859 344.43119141 -55.98828125 345.41357422 C-61.10358136 348.65141761 -65.02320082 348.843037 -70.921875 347.84326172 C-75.80282885 345.8172054 -78.21920146 343.04353101 -81.046875 338.65576172 C-83.06139026 333.24837865 -83.04047946 328.71706115 -80.796875 323.46826172 C-78.92730957 319.94065104 -76.60140445 318.14312239 -73.421875 315.78076172 C-70.24108243 313.18727235 -69.31392436 312.21965734 -68.875 308.07373047 C-69.14400722 304.80670863 -69.56454222 301.67563621 -70.234375 298.46826172 C-71.83978159 299.25741093 -73.44365516 300.04967937 -75.046875 300.84326172 C-75.94019531 301.28412109 -76.83351563 301.72498047 -77.75390625 302.17919922 C-80.37993881 303.48693077 -80.37993881 303.48693077 -83.234375 305.46826172 C-88.8645522 306.59429716 -92.80086222 306.72368212 -98.234375 304.46826172 C-101.031892 302.39175426 -102.91088413 300.75671526 -103.77905273 297.29882812 C-104.47197662 290.77558413 -105.05855179 282.85376563 -101.87890625 276.95263672 C-99.45876125 274.96241768 -97.08273458 273.79681313 -94.234375 272.46826172 C-92.64383441 271.60560146 -91.05832421 270.73363396 -89.4765625 269.85498047 C-86.09420879 267.99932347 -82.70077857 266.1734862 -79.26953125 264.40966797 C-78.5412915 264.03527588 -77.81305176 263.66088379 -77.06274414 263.27514648 C-75.234375 262.46826172 -75.234375 262.46826172 -73.234375 262.46826172 C-72.904375 260.81826172 -72.574375 259.16826172 -72.234375 257.46826172 C-73.224375 257.63326172 -74.214375 257.79826172 -75.234375 257.96826172 C-81.87432001 258.88041578 -87.34713944 259.26225797 -93.234375 255.46826172 C-97.96166706 251.3856004 -99.97145617 248.30778508 -100.546875 242.09326172 C-100.05365405 236.37189867 -98.50877018 232.77162043 -94.484375 228.65576172 C-88.47022165 224.60777389 -81.84044326 224.03569953 -74.796875 223.34326172 C-73.96994141 223.25689453 -73.14300781 223.17052734 -72.29101562 223.08154297 C-70.27270722 222.87154556 -68.25361367 222.66911721 -66.234375 222.46826172 C-66.00999756 221.7322876 -65.78562012 220.99631348 -65.55444336 220.23803711 C-56.84287309 192.04639764 -46.05912898 161.76323965 -28.5546875 137.71826172 C-28.12333496 137.12432617 -27.69198242 136.53039062 -27.24755859 135.91845703 C-26.07905294 134.34569449 -24.86928363 132.80381696 -23.65625 131.26513672 C-21.92208419 128.56013098 -21.92208419 128.56013098 -22.765625 125.67919922 C-23.2503125 124.61958984 -23.735 123.55998047 -24.234375 122.46826172 C-24.81728997 121.05095147 -25.39498792 119.63148943 -25.96875 118.21044922 C-26.29270752 117.43024414 -26.61666504 116.65003906 -26.95043945 115.84619141 C-41.65593758 80.2474271 -50.29399052 36.54686054 -35.234375 -0.53173828 C-32.79322003 -5.51248188 -29.22412304 -9.36905849 -23.984375 -11.40673828 C-13.52050867 -11.88236857 -7.57886298 -6.33393757 0 0 Z" transform="translate(103.234375,49.53173828125)"/><path fill="#F8CCA4" d="M0 0 C-6.9279502 1.66357224 -13.80522193 2.70815981 -20.875 3.5625 C-22.91439957 3.81105182 -24.95348087 4.0622333 -26.9921875 4.31640625 C-27.88276855 4.42412354 -28.77334961 4.53184082 -29.69091797 4.64282227 C-32.1514119 4.95742072 -32.1514119 4.95742072 -35 6 C-40.30591933 21.91775798 -36.02167385 47.2676168 -28.93896484 62.17138672 C-21.32233899 77.00459724 -10.41679101 85.73172809 5.25 91.1171875 C9.69618289 92.16389306 13.76451596 92.30347904 18.3125 92.25 C19.58033325 92.23767334 19.58033325 92.23767334 20.8737793 92.22509766 C39.31385745 91.89444553 54.67549683 84.45196617 67.53125 71.4375 C79.21934384 57.98818654 86.86826878 40.67305592 88.34765625 22.9609375 C88.24425856 19.92360834 88.24425856 19.92360834 86.27734375 17.72265625 C75.22055961 9.35894818 55.87656683 7.04083237 42.3359375 5.45703125 C40 5 40 5 38 3 C40.99914719 2.34998322 43.99921801 1.70488963 47 1.0625 C48.25876953 0.78889648 48.25876953 0.78889648 49.54296875 0.50976562 C58.23587509 -1.34337332 66.48356814 -2.18105693 75.375 -2.1875 C76.69757813 -2.20586914 76.69757813 -2.20586914 78.046875 -2.22460938 C86.0575641 -2.24222819 93.75955492 -1.3525929 101.0625 2.125 C108.77851341 5.32607058 115.57567666 3.97705973 123.68896484 2.85742188 C169.30318366 -3.43116168 220.09355328 -3.56562046 258.90625 24.53515625 C269.08461948 32.64443799 276.52686424 41.73732432 283 53 C283.40992188 53.6290625 283.81984375 54.258125 284.2421875 54.90625 C286.44309157 60.98709836 284.70744876 67.50903303 283 73.5 C282.77997314 74.27609619 282.55994629 75.05219238 282.33325195 75.85180664 C278.52843722 88.54613425 272.25706964 99.66116916 264 110 C263.5565625 110.60714844 263.113125 111.21429688 262.65625 111.83984375 C240.47563433 140.57997076 195.36758789 150.4599348 161.625 155.25 C160.56531006 155.40114258 159.50562012 155.55228516 158.41381836 155.70800781 C135.29069808 158.72814263 112.13256539 159.35328055 88.84936523 159.31567383 C85.74667865 159.31104332 82.64438427 159.31798604 79.54174805 159.33618164 C18.60309821 159.68971612 -46.99213447 149.77465517 -102 122 C-102.64050293 121.68643555 -103.28100586 121.37287109 -103.94091797 121.04980469 C-124.62254256 110.8866165 -147.15834479 95.23240536 -155.19921875 72.62890625 C-155.59560547 71.32759766 -155.59560547 71.32759766 -156 70 C-162.573451 74.10257935 -168.33268868 78.72122776 -174 84 C-174.66 83.34 -175.32 82.68 -176 82 C-174.44073252 80.41348318 -172.87743482 78.83092685 -171.3125 77.25 C-170.44238281 76.36828125 -169.57226562 75.4865625 -168.67578125 74.578125 C-161.84848485 68 -161.84848485 68 -159 68 C-159.26478149 67.00202393 -159.26478149 67.00202393 -159.53491211 65.98388672 C-160.3385972 62.94833035 -161.13808398 59.91168329 -161.9375 56.875 C-162.21529297 55.82828125 -162.49308594 54.7815625 -162.77929688 53.703125 C-163.04677734 52.68476563 -163.31425781 51.66640625 -163.58984375 50.6171875 C-163.83597412 49.68503418 -164.08210449 48.75288086 -164.33569336 47.79248047 C-165.59540729 42.49714495 -166.11803533 37.56746201 -166.0625 32.125 C-166.05347656 30.97257812 -166.04445313 29.82015625 -166.03515625 28.6328125 C-166.02355469 27.76398438 -166.01195312 26.89515625 -166 26 C-176.81971053 30.72288952 -187.50042032 35.59828698 -198 41 C-196.58086141 36.74258423 -193.50091075 35.71505416 -189.75 33.6875 C-189.03505371 33.29377197 -188.32010742 32.90004395 -187.58349609 32.49438477 C-170.13550745 23 -170.13550745 23 -166 23 C-166.02320313 21.83984375 -166.04640625 20.6796875 -166.0703125 19.484375 C-166.08909962 17.90625654 -166.10729661 16.32813099 -166.125 14.75 C-166.14175781 13.99203125 -166.15851563 13.2340625 -166.17578125 12.453125 C-166.23314066 5.56999571 -165.17752745 0.06516467 -164 -7 C-173.57 -7 -183.14 -7 -193 -7 C-193 -7.66 -193 -8.32 -193 -9 C-181.3500412 -11.01671556 -169.79877876 -11.6499061 -158 -12 C-156.65929443 -12.05099854 -156.65929443 -12.05099854 -155.29150391 -12.10302734 C-131.67067294 -12.94161154 -107.69741954 -9.99289353 -84.4519043 -5.86401367 C-77.2078998 -4.43636195 -77.2078998 -4.43636195 -70.359375 -6.42578125 C-69.49828125 -7.04839844 -68.6371875 -7.67101562 -67.75 -8.3125 C-47.14020407 -21.99696128 -19.23955372 -12.82636915 0 0 Z" transform="translate(212,299)"/><path fill="#72481F" d="M0 0 C14.67765185 12.205669 30.72989876 22.32448933 47.015625 32.21826172 C47.59482697 32.57034698 48.17402893 32.92243225 48.77078247 33.28518677 C52.17070594 35.34816258 55.58189113 37.39118237 59.00354004 39.41790771 C60.86723962 40.52883276 62.71980367 41.65720922 64.57324219 42.78515625 C65.82443011 43.5318245 67.07604559 44.27777686 68.328125 45.02294922 C69.44832031 45.69825684 70.56851563 46.37356445 71.72265625 47.06933594 C74.91610456 48.53744078 76.18997133 48.77236478 79.515625 47.84326172 C81.27780123 47.07908174 83.02618759 46.28287428 84.765625 45.46826172 C87.45088436 44.44098539 90.16664857 43.51227246 92.890625 42.59326172 C93.64754639 42.33561035 94.40446777 42.07795898 95.18432617 41.8125 C105.49134581 38.41845647 116.0998663 36.3809139 126.765625 34.46826172 C127.48975586 34.33403809 128.21388672 34.19981445 128.95996094 34.06152344 C169.31219983 26.89249749 220.61230962 33.48926465 256.6796875 53.03857422 C257.45715332 53.44479004 258.23461914 53.85100586 259.03564453 54.26953125 C261.265625 55.46826172 261.265625 55.46826172 263.21826172 56.73339844 C265.62040118 58.02122377 267.01858108 58.48790268 269.765625 58.46826172 C272.92917369 57.1198907 275.79711665 55.58470171 278.75894165 53.85301208 C283.19583949 51.2610285 287.4975613 49.25324369 292.3828125 47.65966797 C293.03687576 47.44627777 293.69093903 47.23288757 294.36482239 47.01303101 C295.73696186 46.57303142 297.11061212 46.13771936 298.48562622 45.70678711 C302.35580592 44.49270765 306.20971233 43.22829256 310.06640625 41.97216797 C310.89931686 41.7022403 311.73222748 41.43231262 312.59037781 41.15420532 C324.05885778 37.42321157 335.43885842 33.43292824 346.828125 29.46826172 C348.95228394 28.73063439 351.07646956 27.99308388 353.20068359 27.25561523 C355.21328765 26.55586968 357.2258233 25.85592737 359.23828125 25.15576172 C360.13910934 24.84263535 361.03993744 24.52950897 361.96806335 24.20689392 C363.2659655 23.75425926 363.2659655 23.75425926 364.59008789 23.29248047 C365.43427277 22.99841309 366.27845764 22.7043457 367.14822388 22.40136719 C368.99839868 21.74177848 370.84131933 21.06167169 372.67868042 20.3671875 C373.63992828 20.0047998 374.60117615 19.64241211 375.59155273 19.26904297 C376.45586411 18.93686768 377.32017548 18.60469238 378.2106781 18.26245117 C382.41420309 16.95581141 386.43395683 16.70072052 390.765625 17.46826172 C394.203125 19.28076172 394.203125 19.28076172 396.765625 21.46826172 C397.28125 21.90138672 397.796875 22.33451172 398.328125 22.78076172 C408.98363016 35.28939822 405.64330336 67.46370048 404.54296875 82.51367188 C402.12494342 107.62622723 395.82464613 137.37790706 379.640625 157.53076172 C379.021875 158.50013672 378.403125 159.46951172 377.765625 160.46826172 C378.81219016 165.01705801 380.9777269 169.08073907 383.03979492 173.24072266 C393.06827398 193.49912455 400.293901 214.55442627 405.765625 236.46826172 C406.02574875 237.49221542 406.2858725 238.51616913 406.55387878 239.57115173 C408.64496225 248.43907438 409.22497128 256.88013488 409.19921875 265.96435547 C409.20379963 267.41057067 409.20911071 268.85678373 409.21510315 270.30299377 C409.22395535 273.31072929 409.22170235 276.31819817 409.21166992 279.32592773 C409.2001852 283.1358068 409.22042399 286.94475816 409.24958706 290.75451565 C409.26813733 293.73441686 409.2676198 296.71410332 409.26194954 299.69404793 C409.26179864 301.09674443 409.2676461 302.49945774 409.28024101 303.9020977 C409.38132829 316.99781302 406.72036287 328.83181975 401.640625 340.90576172 C401.34696045 341.60475586 401.0532959 342.30375 400.75073242 343.02392578 C387.04144396 374.40977558 360.76230786 392.18128833 329.765625 404.46826172 C247.99546553 436.035655 140.93838815 430.9641992 8.0234375 389.28857422 C-7.15051412 382.55351078 -21.60049321 375.3383846 -34.234375 364.46826172 C-34.94980469 363.91267578 -35.66523437 363.35708984 -36.40234375 362.78466797 C-43.13203394 357.39822932 -48.0761591 350.30479419 -53.234375 343.46826172 C-54.59755859 344.43119141 -54.59755859 344.43119141 -55.98828125 345.41357422 C-61.10358136 348.65141761 -65.02320082 348.843037 -70.921875 347.84326172 C-75.80282885 345.8172054 -78.21920146 343.04353101 -81.046875 338.65576172 C-83.06139026 333.24837865 -83.04047946 328.71706115 -80.796875 323.46826172 C-78.92730957 319.94065104 -76.60140445 318.14312239 -73.421875 315.78076172 C-70.24108243 313.18727235 -69.31392436 312.21965734 -68.875 308.07373047 C-69.14400722 304.80670863 -69.56454222 301.67563621 -70.234375 298.46826172 C-71.83978159 299.25741093 -73.44365516 300.04967937 -75.046875 300.84326172 C-75.94019531 301.28412109 -76.83351563 301.72498047 -77.75390625 302.17919922 C-80.37993881 303.48693077 -80.37993881 303.48693077 -83.234375 305.46826172 C-88.8645522 306.59429716 -92.80086222 306.72368212 -98.234375 304.46826172 C-101.031892 302.39175426 -102.91088413 300.75671526 -103.77905273 297.29882812 C-104.47197662 290.77558413 -105.05855179 282.85376563 -101.87890625 276.95263672 C-99.45876125 274.96241768 -97.08273458 273.79681313 -94.234375 272.46826172 C-92.64383441 271.60560146 -91.05832421 270.73363396 -89.4765625 269.85498047 C-86.09420879 267.99932347 -82.70077857 266.1734862 -79.26953125 264.40966797 C-78.5412915 264.03527588 -77.81305176 263.66088379 -77.06274414 263.27514648 C-75.234375 262.46826172 -75.234375 262.46826172 -73.234375 262.46826172 C-72.904375 260.81826172 -72.574375 259.16826172 -72.234375 257.46826172 C-73.224375 257.63326172 -74.214375 257.79826172 -75.234375 257.96826172 C-81.87432001 258.88041578 -87.34713944 259.26225797 -93.234375 255.46826172 C-97.96166706 251.3856004 -99.97145617 248.30778508 -100.546875 242.09326172 C-100.05365405 236.37189867 -98.50877018 232.77162043 -94.484375 228.65576172 C-88.47022165 224.60777389 -81.84044326 224.03569953 -74.796875 223.34326172 C-73.96994141 223.25689453 -73.14300781 223.17052734 -72.29101562 223.08154297 C-70.27270722 222.87154556 -68.25361367 222.66911721 -66.234375 222.46826172 C-66.00999756 221.7322876 -65.78562012 220.99631348 -65.55444336 220.23803711 C-56.84287309 192.04639764 -46.05912898 161.76323965 -28.5546875 137.71826172 C-28.12333496 137.12432617 -27.69198242 136.53039062 -27.24755859 135.91845703 C-26.07905294 134.34569449 -24.86928363 132.80381696 -23.65625 131.26513672 C-21.92208419 128.56013098 -21.92208419 128.56013098 -22.765625 125.67919922 C-23.2503125 124.61958984 -23.735 123.55998047 -24.234375 122.46826172 C-24.81728997 121.05095147 -25.39498792 119.63148943 -25.96875 118.21044922 C-26.29270752 117.43024414 -26.61666504 116.65003906 -26.95043945 115.84619141 C-41.65593758 80.2474271 -50.29399052 36.54686054 -35.234375 -0.53173828 C-32.79322003 -5.51248188 -29.22412304 -9.36905849 -23.984375 -11.40673828 C-13.52050867 -11.88236857 -7.57886298 -6.33393757 0 0 Z M-20.234375 4.46826172 C-33.20725031 42.37928569 -24.90243288 80.57053361 -9.8515625 116.46826172 C-7.70486525 120.45054067 -5.02737134 123.91988426 -2.234375 127.46826172 C-2.98460938 128.49822266 -3.73484375 129.52818359 -4.5078125 130.58935547 C-24.64287368 158.49235835 -53.234375 202.14085508 -53.234375 237.46826172 C-53.99580811 237.52361084 -54.75724121 237.57895996 -55.54174805 237.63598633 C-59.00203586 237.88934531 -62.46194952 238.14750365 -65.921875 238.40576172 C-67.12005859 238.49277344 -68.31824219 238.57978516 -69.55273438 238.66943359 C-70.70966797 238.75644531 -71.86660156 238.84345703 -73.05859375 238.93310547 C-74.65320435 239.05093384 -74.65320435 239.05093384 -76.2800293 239.17114258 C-78.988819 239.4435661 -81.57790831 239.88199219 -84.234375 240.46826172 C-84.234375 241.12826172 -84.234375 241.78826172 -84.234375 242.46826172 C-74.664375 242.46826172 -65.094375 242.46826172 -55.234375 242.46826172 C-55.894375 246.42826172 -56.554375 250.38826172 -57.234375 254.46826172 C-57.36010928 257.75747052 -57.43184051 260.94059094 -57.359375 264.21826172 C-57.35035156 265.02263672 -57.34132813 265.82701172 -57.33203125 266.65576172 C-57.30896415 268.59339786 -57.27312272 270.53087572 -57.234375 272.46826172 C-58.03814575 272.70609375 -58.03814575 272.70609375 -58.8581543 272.94873047 C-64.95868994 274.85477764 -70.43029007 277.43949268 -76.046875 280.46826172 C-77.29500977 281.12568359 -77.29500977 281.12568359 -78.56835938 281.79638672 C-82.35033055 283.81020296 -85.84618682 285.82977392 -89.234375 288.46826172 C-88.904375 289.12826172 -88.574375 289.78826172 -88.234375 290.46826172 C-87.65059082 290.15598633 -87.06680664 289.84371094 -86.46533203 289.52197266 C-83.76615913 288.0820585 -81.06281898 286.65013973 -78.359375 285.21826172 C-77.4415625 284.72712891 -76.52375 284.23599609 -75.578125 283.72998047 C-69.59464478 280.56969162 -63.57156884 277.84191029 -57.234375 275.46826172 C-57.29612915 276.68787598 -57.29612915 276.68787598 -57.35913086 277.93212891 C-57.9419697 291.47943951 -53.98768168 304.55916146 -50.234375 317.46826172 C-50.78996094 317.70802734 -51.34554687 317.94779297 -51.91796875 318.19482422 C-54.75191198 319.75277615 -56.9034977 321.67008957 -59.296875 323.84326172 C-60.58271484 324.99955078 -60.58271484 324.99955078 -61.89453125 326.17919922 C-63.93369424 328.17410658 -65.60854211 330.13345907 -67.234375 332.46826172 C-62.909881 332.46826172 -60.86785343 329.83827037 -57.796875 327.09326172 C-50.86528128 320.9491719 -50.86528128 320.9491719 -47.234375 319.46826172 C-46.98042969 320.32548828 -46.72648437 321.18271484 -46.46484375 322.06591797 C-37.37784653 347.19218647 -11.57503043 363.06952778 11.27026367 373.96020508 C60.74647973 396.41533232 118.53683406 408.60886692 172.73828125 408.63623047 C174.27070646 408.63945875 175.8031314 408.64282388 177.33555603 408.64631653 C180.54019887 408.65226978 183.74481492 408.6541608 186.94946289 408.65356445 C190.1751067 408.65348386 193.40060647 408.66032453 196.6262207 408.67407227 C216.43604084 408.75714936 236.03055947 408.42590519 255.765625 406.46826172 C256.53129791 406.39255951 257.29697083 406.3168573 258.08584595 406.23886108 C262.20078617 405.81691349 266.29577661 405.30230609 270.390625 404.71826172 C271.58244385 404.54907227 272.7742627 404.37988281 274.00219727 404.20556641 C304.63725318 399.63031965 339.26336584 390.86011393 362.765625 369.46826172 C363.35601562 369.01708984 363.94640625 368.56591797 364.5546875 368.10107422 C380.01273379 356.17226224 387.83346046 336.71326062 392.765625 318.46826172 C393.00023437 317.60458984 393.23484375 316.74091797 393.4765625 315.85107422 C405.54992777 266.6827316 386.34945881 211.63469045 363.765625 168.46826172 C363.19658447 167.56615967 362.62754395 166.66405762 362.04125977 165.73461914 C360.765625 163.46826172 360.765625 163.46826172 361.28125 161.18310547 C363.32521488 157.44480128 365.39801794 153.72787934 367.515625 150.03076172 C374.47794818 137.65704753 379.4523441 124.97070626 383.765625 111.46826172 C384.09820312 110.56333984 384.43078125 109.65841797 384.7734375 108.72607422 C392.21463344 84.293171 391.57297737 57.30624899 386.765625 32.46826172 C379.49318474 34.35330225 372.41458134 36.53774793 365.3515625 39.09326172 C363.90996262 39.60839073 363.90996262 39.60839073 362.4392395 40.13392639 C359.33849134 41.24202239 356.23956555 42.35512175 353.140625 43.46826172 C339.25178675 48.44115862 325.35283778 53.32595107 311.31634521 57.8661499 C292.21490831 63.30710306 292.21490831 63.30710306 276.1875 74.25732422 C273.765625 76.46826172 273.765625 76.46826172 271.51171875 76.55810547 C268.37192402 75.31201339 265.39105993 73.86806224 262.38354492 72.33203125 C243.43102376 62.68103882 222.54413644 55.92267149 201.765625 51.46826172 C200.93933594 51.26974609 200.11304688 51.07123047 199.26171875 50.86669922 C161.07366553 42.20815585 118.57033703 47.17974193 82.9934082 63.06665039 C81.8655188 63.55935425 81.8655188 63.55935425 80.71484375 64.06201172 C80.06862061 64.35785156 79.42239746 64.65369141 78.7565918 64.95849609 C74.95184978 65.93265935 72.26745074 64.7239072 68.85327148 62.98461914 C67.26107788 62.03872925 67.26107788 62.03872925 65.63671875 61.07373047 C65.05415817 60.73030609 64.4715976 60.38688171 63.87138367 60.03305054 C61.9777062 58.91430108 60.09036277 57.78533473 58.203125 56.65576172 C56.89143263 55.8771473 55.57941834 55.09907497 54.26708984 54.3215332 C51.64635591 52.76696645 49.0283224 51.20799952 46.41259766 49.64501953 C43.25889458 47.76082384 40.09766188 45.88969903 36.93359375 44.02294922 C19.33967503 33.60957864 2.4423978 22.52291003 -12.95947266 9.00952148 C-15.39026091 6.90017549 -17.1452079 5.49798408 -20.234375 4.46826172 Z" transform="translate(103.234375,49.53173828125)"/><path fill="#FEB25F" d="M0 0 C7.37253282 6.86257045 12.83909917 14.54626265 17.84375 23.25390625 C18.25367188 23.88296875 18.66359375 24.51203125 19.0859375 25.16015625 C21.28684157 31.24100461 19.55119876 37.76293928 17.84375 43.75390625 C17.62372314 44.53000244 17.40369629 45.30609863 17.17700195 46.10571289 C13.37218722 58.8000405 7.10081964 69.91507541 -1.15625 80.25390625 C-1.5996875 80.86105469 -2.043125 81.46820313 -2.5 82.09375 C-25.42173831 111.79417312 -72.40010019 121.39806292 -107.20385742 125.98828125 C-127.51281988 128.49499365 -147.69847974 129.63973392 -168.15625 129.25390625 C-164.76682786 125.19900089 -161.32985478 121.37246285 -157.46875 117.75390625 C-141.10233152 101.51054355 -131.02829225 81.01537337 -124.15625 59.25390625 C-114.30705151 66.96197463 -107.31415331 76.66935723 -100.65625 87.12890625 C-100.13973877 87.93739014 -99.62322754 88.74587402 -99.09106445 89.57885742 C-96.52035218 93.70783659 -94.43671435 97.51313944 -93.15625 102.25390625 C-92.16625 102.25390625 -91.17625 102.25390625 -90.15625 102.25390625 C-99.01273334 85.46063176 -108.61057861 68.79957764 -122.15625 55.25390625 C-122.40140697 52.75015157 -122.52958658 50.34841146 -122.5703125 47.83984375 C-122.58967865 47.11020416 -122.6090448 46.38056458 -122.6289978 45.6288147 C-122.68883422 43.29563123 -122.73519423 40.96239852 -122.78125 38.62890625 C-122.81942614 37.04815543 -122.85847765 35.46742549 -122.8984375 33.88671875 C-122.99453878 30.00928395 -123.07855412 26.13175176 -123.15625 22.25390625 C-93.73758028 30.68138534 -67.6950939 46.68976469 -45.15625 67.25390625 C-61.3260352 46.46418242 -89.14015851 29.92585315 -113.77368164 21.56713867 C-123.29295941 18.31796209 -123.29295941 18.31796209 -126.171875 14.76953125 C-127.42287409 11.96665987 -128.27898836 9.19253606 -129.15625 6.25390625 C-130.17225722 4.25047513 -131.23516148 2.2701305 -132.34375 0.31640625 C-134.01455029 -2.67692725 -135.64878671 -5.66686779 -137.15625 -8.74609375 C-117.10886482 -9.58822428 -98.03975127 -6.48599066 -79.15625 0.25390625 C-78.50640137 0.47804199 -77.85655273 0.70217773 -77.18701172 0.93310547 C-57.68585092 7.66796895 -39.35765108 17.42779706 -23.15625 30.25390625 C-32.14649413 20.83476974 -43.79630561 14.41923403 -55.15625 8.25390625 C-56.10757813 7.73054688 -57.05890625 7.2071875 -58.0390625 6.66796875 C-67.04588954 1.92621301 -76.56414256 -1.40831406 -86.15625 -4.74609375 C-87.25710938 -5.13925781 -88.35796875 -5.53242188 -89.4921875 -5.9375 C-102.63389112 -10.3353142 -116.54399307 -12.56883029 -130.34741211 -13.32763672 C-140.84622353 -13.91789011 -147.58981456 -14.83348152 -155.15625 -22.74609375 C-155.81625 -23.40609375 -156.47625 -24.06609375 -157.15625 -24.74609375 C-149.83040138 -25.80461365 -142.49682668 -26.79526657 -135.15625 -27.74609375 C-134.31304199 -27.85775879 -133.46983398 -27.96942383 -132.60107422 -28.08447266 C-87.8180682 -33.83011308 -35.35156617 -31.42482971 0 0 Z" transform="translate(477.15625,328.74609375)"/><path fill="#42210B" d="M0 0 C2.31637531 0.39190965 4.63545952 0.75279398 6.95800781 1.10595703 C42.5889255 6.72037858 42.5889255 6.72037858 50.23144531 14.14501953 C53.10989286 19.50520551 51.43669168 26.72618538 49.91357422 32.42089844 C43.66162455 52.35654305 32.55798236 70.36724159 14.45019531 81.41455078 C-0.53853748 89.13349864 -18.57213798 92.92491949 -35.11230469 87.78955078 C-40.63526839 85.59423048 -45.6795139 82.81300496 -50.54980469 79.41455078 C-51.58041016 78.6971875 -51.58041016 78.6971875 -52.63183594 77.96533203 C-64.88896751 68.36753867 -71.74023101 52.3328026 -73.59863281 37.26879883 C-74.04252728 32.98973834 -74.32363929 28.71008927 -74.54980469 24.41455078 C-74.60040039 23.53347656 -74.65099609 22.65240234 -74.703125 21.74462891 C-74.83535763 19.15515256 -74.92151668 16.56899751 -74.98730469 13.97705078 C-75.02186768 13.19048096 -75.05643066 12.40391113 -75.09204102 11.59350586 C-75.11942048 7.84824059 -74.70408012 5.65248485 -72.65527344 2.49267578 C-68.34896102 -0.38903265 -64.51483054 -0.85870587 -59.42480469 -1.39794922 C-57.91865601 -1.57221436 -57.91865601 -1.57221436 -56.38208008 -1.75 C-37.46626381 -3.72218261 -18.73656512 -3.17283949 0 0 Z" transform="translate(249.5498046875,302.58544921875)"/><path fill="#DC665D" d="M0 0 C10.7950331 18.50577104 4.69788734 53.38733893 0 73 C-5.33109895 92.98769885 -13.62491949 111.73591324 -25 129 C-28.77728908 127.74090364 -29.12824098 126.55883951 -31.125 123.1875 C-44.76082692 101.07920322 -63.31832453 80.64318744 -84.1796875 65.1640625 C-86.67419265 63.24999622 -88.84389686 61.28109463 -91 59 C-77.53381695 45.87512574 -61.98015335 37.96976842 -44.77734375 30.81640625 C-27.32617312 23.55193743 -10.99675063 16.03692801 0 0 Z" transform="translate(489,82)"/><path fill="#DC665D" d="M0 0 C2.92464873 3.5185774 4.74147177 7.46063436 6.6875 11.5625 C20.92914269 40.58295866 48.22606445 57.43603842 77 70 C74.05746115 73.15172407 71.00399874 75.43280292 67.375 77.75 C58.73568541 83.42217135 50.99978972 89.87881112 43.37890625 96.84375 C41.22489491 98.79615436 39.02972274 100.68277359 36.8125 102.5625 C32.80747277 106.05074952 29.39269084 109.92383017 26 114 C25.48953125 114.60714844 24.9790625 115.21429688 24.453125 115.83984375 C23.29587819 117.2213884 22.14688247 118.60983943 21 120 C16.49623717 118.49874572 14.34110083 114.89138921 12 111 C10.30968844 107.44429754 8.89178033 103.80641457 7.5 100.125 C7.11054199 99.10704346 6.72108398 98.08908691 6.31982422 97.0402832 C3.08943297 88.47281163 0.14285703 79.90604843 -2 71 C-2.24339111 70.00033203 -2.24339111 70.00033203 -2.49169922 68.98046875 C-7.68714687 46.54728713 -6.54845765 22.008512 0 0 Z" transform="translate(82,56)"/><path fill="#FEB25F" d="M0 0 C0.029729 1.17018677 0.029729 1.17018677 0.06005859 2.36401367 C0.1565735 5.9721247 0.26572954 9.5797536 0.375 13.1875 C0.4059375 14.41404297 0.436875 15.64058594 0.46875 16.90429688 C0.85074234 28.96888818 2.42278514 40.46384123 6 52 C6.20641113 52.66692871 6.41282227 53.33385742 6.62548828 54.02099609 C9.49321657 63.19164664 12.64795669 71.96200435 16.8984375 80.59375 C18 83 18 83 18 85 C-9.81973418 76.30633307 -37.57226861 59.79391376 -52.484375 34 C-54.14430198 30.71437134 -55.58926312 27.39936597 -57 24 C-41.15982389 13.06950327 -19.8437451 0 0 0 Z" transform="translate(112,344)"/><path fill="#44220B" d="M0 0 C19.71600012 4.91338546 35.94450654 16.51839286 46.5 33.9375 C49.27859733 38.76182838 50.87614848 42.627982 49.890625 48.23046875 C48.63286165 50.72944593 47.46278551 51.6577819 45 53 C41.828125 53.328125 41.828125 53.328125 38.25 53.25 C37.07953125 53.23453125 35.9090625 53.2190625 34.703125 53.203125 C31.46681739 53.02560602 28.31297304 52.65412686 25.10253906 52.22705078 C21.32319701 51.81892397 17.5480882 51.80940835 13.75 51.8125 C12.50428223 51.8115332 12.50428223 51.8115332 11.23339844 51.81054688 C5.5026124 51.85950893 0.08092235 52.45983794 -5.5546875 53.53515625 C-10.77179747 54.52690719 -13.75520446 54.70161203 -18.4375 52.0625 C-21.42507108 48.49198822 -21.70203532 46.77032839 -21.796875 42.28125 C-20.56660843 38.75931041 -18.11677696 36.84568915 -15 35 C-11.6171875 34.109375 -11.6171875 34.109375 -7.875 33.75 C-7.20210937 33.68119629 -6.52921875 33.61239258 -5.8359375 33.54150391 C3.08205917 32.6913054 12.05102359 32.34842326 21 32 C12.87454632 25.96104069 5.64407598 21.77394411 -4.25 19.5 C-8.71711155 18.4586224 -11.77790916 17.44430401 -15 14 C-16.56935594 10.86128812 -16.35201103 8.46144178 -16 5 C-12.07666821 -1.35850325 -6.73798474 -1.01029034 0 0 Z" transform="translate(168,196)"/><path fill="#44230C" d="M0 0 C0.76594482 -0.01482422 1.53188965 -0.02964844 2.32104492 -0.04492188 C7.26973199 0.04691281 9.91373853 0.87278868 13.5 4.5625 C14.92662219 7.41574437 14.81033868 9.39704549 14.5 12.5625 C12.70006226 15.26240662 11.416227 17.1043865 8.5 18.5625 C6.54271778 18.6676674 4.58400184 18.74673015 2.625 18.8125 C-4.52507505 19.29604166 -10.08429596 21.5339103 -16.5 24.5625 C-18.16206147 25.24056629 -19.82734184 25.91101177 -21.5 26.5625 C-21.5 27.2225 -21.5 27.8825 -21.5 28.5625 C-20.365625 28.624375 -19.23125 28.68625 -18.0625 28.75 C-7.27035055 29.96240919 5.46537332 33.43397862 14.5 39.5625 C16.83909307 43.0711396 16.91291057 44.43339433 16.5 48.5625 C15.25234694 51.30733673 14.14684565 53.03544058 11.8125 54.9375 C5.61550459 56.61236362 -0.65703858 53.94255735 -6.375 51.6875 C-17.71797656 47.4651893 -29.19172821 45.68200326 -41.25 45.1875 C-45.3566026 44.96384957 -48.0759486 44.74943766 -51.3125 42.125 C-53.57401502 39.47579669 -54.35832626 38.30628714 -55 34.9375 C-53.6342966 25.71900208 -42.59681077 18.84935723 -35.5 13.5625 C-24.38368172 5.80409516 -13.71129258 0.18807219 0 0 Z" transform="translate(330.5,209.4375)"/><path fill="#FEB15E" d="M0 0 C0.99 0.33 1.98 0.66 3 1 C2.4385038 6.23612121 1.10391084 10.71898824 -0.8125 15.625 C-3.29688855 22.31800574 -5.03667815 28.98891232 -6.375 36 C-6.62600464 37.28898193 -6.62600464 37.28898193 -6.88208008 38.60400391 C-7.87994345 44.14673503 -8.14756356 49.36988253 -8 55 C-7.20980469 54.443125 -6.41960937 53.88625 -5.60546875 53.3125 C6.4642793 45.05137126 19.51612581 40.03198537 33.15991211 34.95043945 C48.24321702 29.44896955 48.24321702 29.44896955 61.65625 20.796875 C64 19 64 19 67 19 C66.20528768 27.30835606 60.59631841 31.89640553 54.51953125 37.140625 C46.96404227 42.94726403 38.5459575 46.90992495 30 51 C26.17958665 52.8382914 22.36947892 54.69657205 18.5625 56.5625 C17.65137451 56.99731689 16.74024902 57.43213379 15.80151367 57.88012695 C9.5708896 60.93709981 4.347761 64.59750608 -1 69 C-2.16553239 69.87651034 -3.33198886 70.75179551 -4.5 71.625 C-12.76864796 78.89834775 -17.42524197 88.51544329 -21.46337891 98.51318359 C-23.74677028 103.94543455 -26.07160875 106.8458296 -31 110 C-31.33 110 -31.66 110 -32 110 C-32.70307788 98.11017187 -32.0233587 86.85204613 -25.390625 76.484375 C-23.66660261 73.40437995 -23.41126952 70.94478903 -23.0625 67.4375 C-20.6009938 46.49640582 -15.65560684 15.65560684 0 0 Z" transform="translate(316,122)"/><path fill="#FEB260" d="M0 0 C1.05960938 -0.00064453 2.11921875 -0.00128906 3.2109375 -0.00195312 C11.11517448 0.05112783 18.66785392 0.65545711 26.4375 2.1875 C27.67943748 5.91331245 26.98581788 6.97966534 25.5625 10.5625 C24.16324359 14.11445857 23.14188257 17.43892549 22.4375 21.1875 C21.70337891 21.41824219 20.96925781 21.64898437 20.21289062 21.88671875 C0.6775129 28.07638758 -16.30503282 35.20990099 -33.5625 46.1875 C-35.22595428 47.19283458 -36.8915362 48.19469701 -38.5625 49.1875 C-39.54661806 45.6471903 -40.52390579 42.10502957 -41.5 38.5625 C-41.77779297 37.56347656 -42.05558594 36.56445312 -42.34179688 35.53515625 C-44.32035896 28.33605082 -45.70159803 21.81910689 -45.625 14.3125 C-45.61597656 13.16007812 -45.60695312 12.00765625 -45.59765625 10.8203125 C-45.58605469 9.95148438 -45.57445312 9.08265625 -45.5625 8.1875 C-39.98939195 5.53724481 -34.61425916 4.19155954 -28.5625 3.0625 C-27.69882812 2.89363281 -26.83515625 2.72476562 -25.9453125 2.55078125 C-17.21970972 0.86666035 -8.89039104 -0.00556345 0 0 Z" transform="translate(91.5625,316.8125)"/><path fill="#FEB15E" d="M0 0 C2.0625 0.4375 2.0625 0.4375 4 1 C2.79323724 7.12433502 1.11924985 12.84179033 -1.1171875 18.6640625 C-1.73049202 20.29816835 -2.3437725 21.93228322 -2.95703125 23.56640625 C-3.91153692 26.08753032 -4.86843229 28.60772985 -5.82666016 31.12744141 C-14.24473915 50.5821514 -14.24473915 50.5821514 -16 71 C-14.33552638 74.29868408 -12.52324566 77.49072428 -10.69140625 80.69921875 C-6.89321925 88.11138508 -5.75670892 97.75149896 -7 106 C-8.51953125 108.31640625 -8.51953125 108.31640625 -10 110 C-14.49437627 105.10410884 -17.39853739 100.52000104 -19.5 94.1875 C-23.30407113 82.78747915 -29.48821849 74.20717836 -37.07983398 65.07397461 C-49.01145518 50.62190403 -56.55713311 37.29168605 -55.24072266 18.09716797 C-54.53497663 11.94873148 -52.6867359 6.17643227 -48 2 C-47.01 2.33 -46.02 2.66 -45 3 C-45.165 3.94875 -45.33 4.8975 -45.5 5.875 C-47.74243113 21.99450497 -42.94094381 34.7695069 -33.25 47.625 C-31.24776116 50.21973809 -29.31635021 52.68364979 -27 55 C-26.53198975 53.92177979 -26.06397949 52.84355957 -25.58178711 51.73266602 C-20.93431166 41.10636373 -15.98056543 30.67260625 -10.76098633 20.31616211 C-9.53442311 17.88177519 -8.31467908 15.44405309 -7.09570312 13.00585938 C-6.31548756 11.45032848 -5.53490362 9.89498227 -4.75390625 8.33984375 C-4.39043594 7.61401596 -4.02696564 6.88818817 -3.65248108 6.1403656 C-1.11621954 1.11621954 -1.11621954 1.11621954 0 0 Z" transform="translate(222,117)"/><path fill="#FEB260" d="M0 0 C23.77336804 0.00730544 46.76307018 3.80787064 70.0625 8.25 C70.0625 13.20803251 67.42912134 16.93268763 64.30810547 20.64404297 C59.98924253 24.78246612 54.91787787 24.37419095 49.24520874 24.26742554 C46.53469647 24.15650587 43.83197093 23.98896265 41.125 23.8125 C37.57505918 23.64090068 34.02455743 23.50290354 30.47265625 23.37890625 C29.60048462 23.34553665 28.72831299 23.31216705 27.82971191 23.27778625 C15.60332737 22.94452694 3.61129722 25.41834984 -8.0625 28.9375 C-8.83980469 29.16244141 -9.61710937 29.38738281 -10.41796875 29.61914062 C-12.26046748 30.15369272 -14.09945624 30.70032497 -15.9375 31.25 C-16.34914523 10.66773866 -16.34914523 10.66773866 -13.9375 1.25 C-11.2791057 -1.4083943 -3.55455106 0.00786654 0 0 Z" transform="translate(61.9375,290.75)"/><path fill="#FEB260" d="M0 0 C1.66869141 0.02513672 1.66869141 0.02513672 3.37109375 0.05078125 C18.6285838 0.64611252 34.18846012 3.94990817 48.5078125 9.21875 C52.5965243 10.50047784 56.7361999 10.81133628 61 11 C61 11.33 61 11.66 61 12 C59.33324219 12.12955078 59.33324219 12.12955078 57.6328125 12.26171875 C47.45987392 13.17477746 39.23396479 14.58020751 31.1875 21.375 C23.1644754 25.4651694 10.6390914 21.43420693 2 20.0625 C-20.51015786 16.65881764 -42.27586071 15.72305821 -65 16 C-63.68 15.67 -62.36 15.34 -61 15 C-61 14.01 -61 13.02 -61 12 C-53.19600961 8.18402073 -45.37038478 5.31498478 -37 3 C-36.23042969 2.7834375 -35.46085937 2.566875 -34.66796875 2.34375 C-23.45814384 -0.48470304 -11.48241543 -0.26703292 0 0 Z" transform="translate(111,272)"/><path fill="#DD675D" d="M0 0 C1.31581055 -0.01740234 1.31581055 -0.01740234 2.65820312 -0.03515625 C9.04845469 -0.00647898 14.46657857 0.65407857 19.1875 5.375 C19.2547383 8.87139144 19.07744089 11.34429098 16.73046875 14.0625 C14.94775208 15.61606573 13.11520689 17.00694995 11.1875 18.375 C10.0428125 19.303125 10.0428125 19.303125 8.875 20.25 C4.66928396 22.01053229 0.67272232 22.01998238 -3.8125 21.375 C-8.60232405 18.82042718 -11.53313829 14.22331446 -13.8125 9.375 C-14.375 6.0625 -14.375 6.0625 -13.8125 3.375 C-10.16937045 -0.83861961 -5.1235528 -0.06687741 0 0 Z" transform="translate(231.8125,271.625)"/><path fill="#FEF9F4" d="M0 0 C19.28767531 -0.68474897 38.20308502 1.63397588 57.29150391 4.10302734 C58.33902832 4.23612305 59.38655273 4.36921875 60.46582031 4.50634766 C72.06215396 6.01755538 83.10217745 8.7208295 94.29150391 12.10302734 C93.96150391 13.75302734 93.63150391 15.40302734 93.29150391 17.10302734 C88.68919395 16.54072653 84.32016686 15.65200147 79.83422852 14.49072266 C69.5586556 11.84875037 59.20403393 9.98049306 48.72900391 8.35302734 C48.0514505 8.24647827 47.37389709 8.1399292 46.67581177 8.03015137 C33.46327407 5.96577365 20.58529144 4.94919718 7.21337891 5.00537109 C5.27449799 5.00749352 5.27449799 5.00749352 3.29644775 5.00965881 C-0.0965986 5.01342934 -3.48960035 5.0232111 -6.88262939 5.03436279 C-10.36233925 5.04469623 -13.84205649 5.04918168 -17.32177734 5.05419922 C-24.11736828 5.0648398 -30.91293003 5.08184823 -37.70849609 5.10302734 C-37.70849609 4.44302734 -37.70849609 3.78302734 -37.70849609 3.10302734 C-25.14915614 0.9288895 -12.70677061 0.4833475 0 0 Z" transform="translate(56.70849609375,286.89697265625)"/><path fill="#FEF9F4" d="M0 0 C0.72714203 -0.01261871 1.45428406 -0.02523743 2.20346069 -0.03823853 C34.63576489 -0.48942056 63.87250743 5.44932145 92.94140625 20.2734375 C94.54435547 21.06814453 94.54435547 21.06814453 96.1796875 21.87890625 C107.54638448 27.72186038 118.23424962 34.96159086 127.94140625 43.2734375 C127.61140625 43.9334375 127.28140625 44.5934375 126.94140625 45.2734375 C126.12800781 44.66757812 125.31460938 44.06171875 124.4765625 43.4375 C109.54377013 32.45535745 94.22640565 23.97554661 76.94140625 17.2734375 C75.72710937 16.79003906 74.5128125 16.30664062 73.26171875 15.80859375 C64.05000183 12.30899229 54.61169704 10.07345583 44.94140625 8.2734375 C44.03769287 8.09683594 43.13397949 7.92023438 42.20288086 7.73828125 C32.04657655 5.94355377 21.91116525 5.8290095 11.62890625 5.6484375 C9.80922813 5.61015922 7.98956621 5.57110219 6.16992188 5.53125 C1.7605518 5.43634766 -2.64890242 5.35193696 -7.05859375 5.2734375 C-7.62109375 3.3359375 -7.62109375 3.3359375 -8.05859375 1.2734375 C-6.13943806 -0.64571819 -2.61629122 0.04025179 0 0 Z" transform="translate(327.05859375,314.7265625)"/><path fill="#FEFAF5" d="M0 0 C0.38218767 1.65614657 0.71395102 3.32457024 1 5 C-0.55081421 6.55081421 -2.04913352 6.14515871 -4.20703125 6.17578125 C-38.94040877 6.99622989 -70.65961263 17.99112296 -97.6640625 40.1015625 C-101.03203424 42.83874354 -104.50760668 45.42460381 -108 48 C-108 44.16619503 -107.0999279 43.66733108 -104.4375 41 C-98.16115369 34.94041918 -91.16987702 29.93567523 -84 25 C-82.45699219 23.93072266 -82.45699219 23.93072266 -80.8828125 22.83984375 C-57.32146146 7.44846768 -28.1161334 -1.11966903 0 0 Z" transform="translate(145,335)"/><path fill="#FEFAF5" d="M0 0 C1.00756851 0.00223572 1.00756851 0.00223572 2.03549194 0.0045166 C16.61222367 0.06241822 31.54573661 0.59385633 44.8125 7.3125 C44.8125 8.6325 44.8125 9.9525 44.8125 11.3125 C39.74912704 11.5060047 35.71349388 10.90241417 30.875 9.4375 C-7.45280858 -1.35156167 -46.56449491 7.42824697 -80.59301758 26.41381836 C-81.11919678 26.7103833 -81.64537598 27.00694824 -82.1875 27.3125 C-82.1875 26.3225 -82.1875 25.3325 -82.1875 24.3125 C-68.43638017 16.24834595 -54.90423365 9.4859113 -39.5625 5 C-38.74048096 4.75741455 -37.91846191 4.5148291 -37.0715332 4.26489258 C-24.85728831 0.87091372 -12.63490729 -0.05382282 0 0 Z" transform="translate(97.1875,312.6875)"/><path fill="#FEF9F3" d="M0 0 C41.37596171 1.97028389 80.87472068 29.80624007 110 57 C109.505 57.99 109.505 57.99 109 59 C108.48695313 58.50113281 107.97390625 58.00226563 107.4453125 57.48828125 C78.24692122 30.10864498 41.70553259 14.42807643 2.91333008 6.46142578 C1 6 1 6 -1 5 C-0.67 3.35 -0.34 1.7 0 0 Z" transform="translate(323,338)"/><path fill="#FEFAF7" d="M0 0 C5.18810286 0.43493078 8.31508241 2.28426574 12.25 5.5 C12.8179126 5.95213867 13.3858252 6.40427734 13.97094727 6.87011719 C19.16748817 11.04722699 24.16936297 15.4034467 29 20 C29.5377002 20.51046875 30.07540039 21.0209375 30.62939453 21.546875 C46.40537782 36.62277977 59.65398365 54.16820921 69 74 C69 74.66 69 75.32 69 76 C68.01 76 67.02 76 66 76 C65.46632813 75.00742187 64.93265625 74.01484375 64.3828125 72.9921875 C57.34905622 60.08897112 49.65284753 48.31607536 39.40283203 37.72949219 C36 34.19232162 36 34.19232162 36 32 C35.41089844 31.7421875 34.82179688 31.484375 34.21484375 31.21875 C31.81549867 29.89847546 30.41188034 28.51001694 28.5625 26.5 C20.76264802 18.51167576 11.68850447 12.07250818 1.94921875 6.66796875 C0 5 0 5 -0.29296875 2.30078125 C-0.19628906 1.54152344 -0.09960938 0.78226562 0 0 Z" transform="translate(318,355)"/><path fill="#F0ECE8" d="M0 0 C0.66 0.33 1.32 0.66 2 1 C2 1.66 2 2.32 2 3 C1.00742187 3.42410156 0.01484375 3.84820312 -1.0078125 4.28515625 C-10.16931194 8.22981671 -19.12807277 12.43927491 -28 17 C-26.5703049 12.7109147 -23.40459472 11.66596402 -19.625 9.625 C-18.90489746 9.22941895 -18.18479492 8.83383789 -17.44287109 8.42626953 C-5.01660156 1.67220052 -5.01660156 1.67220052 0 0 Z" transform="translate(42,323)"/><path fill="#FFF3E6" d="M0 0 C10.88209632 4.04192149 19.98049766 11.8733026 29 19 C28.67 19.66 28.34 20.32 28 21 C27.16339844 20.38253906 26.32679688 19.76507813 25.46484375 19.12890625 C16.92526017 12.89330083 8.14527174 7.30272059 -1 2 C-0.67 1.34 -0.34 0.68 0 0 Z" transform="translate(426,339)"/><path fill="#F0EBE7" d="M0 0 C0.66 0.33 1.32 0.66 2 1 C-0.53764266 6.58281385 -5.20017845 9.48115976 -10 13 C-11.52152732 14.14491165 -13.0424149 15.29067423 -14.5625 16.4375 C-15.70771066 17.29250133 -16.85329616 18.14700232 -18 19 C-18 16 -18 16 -16.34765625 13.984375 C-11.16644265 8.91829948 -5.83970664 4.2934959 0 0 Z" transform="translate(55,364)"/><path fill="#F6F2EE" d="M0 0 C0.66 0.33 1.32 0.66 2 1 C-0.40016348 5.94151304 -3.52273027 8.04331244 -8 11 C-8.66 10.67 -9.32 10.34 -10 10 C-3.84965831 2.51708428 -3.84965831 2.51708428 0 0 Z" transform="translate(55,364)"/><path fill="#F3EFEC" d="M0 0 C0 0.66 0 1.32 0 2 C-2.97 2 -5.94 2 -9 2 C-9 1.34 -9 0.68 -9 0 C-5.62182575 -0.84454356 -3.32534757 -1.10844919 0 0 Z" transform="translate(28,290)"/><path fill="#FFF1E2" d="M0 0 C2.15377564 2.62198774 3.40072174 4.64404172 4 8 C3.01 8 2.02 8 1 8 C0.26919734 6.02253397 -0.39421747 4.01927511 -1 2 C-0.67 1.34 -0.34 0.68 0 0 Z" transform="translate(383,423)"/><path fill="#F9F3ED" d="M0 0 C0 0.66 0 1.32 0 2 C-2.31 2.33 -4.62 2.66 -7 3 C-6.67 2.01 -6.34 1.02 -6 0 C-3 -1 -3 -1 0 0 Z" transform="translate(50,322)"/></svg>